<svg width="50" height="50" viewBox="0 0 50 50" fill="none" xmlns="http://www.w3.org/2000/svg">
<circle cx="25" cy="25" r="25" transform="rotate(-90 25 25)" fill="#6041B0"/>
<path fill-rule="evenodd" clip-rule="evenodd" d="M26.4986 15.833C26.4986 15.0046 25.8271 14.333 24.9986 14.333C24.1702 14.333 23.4986 15.0046 23.4986 15.833V22.482H15.8331C15.0047 22.482 14.3331 23.1536 14.3331 23.982C14.3331 24.8104 15.0047 25.482 15.8331 25.482H23.4986V34.1667C23.4986 34.9952 24.1702 35.6667 24.9986 35.6667C25.8271 35.6667 26.4986 34.9952 26.4986 34.1667V25.482H34.1668C34.9953 25.482 35.6668 24.8104 35.6668 23.982C35.6668 23.1536 34.9953 22.482 34.1668 22.482H26.4986V15.833Z" fill="white"/>
</svg>
