<svg width="32" height="29" viewBox="0 0 32 29" fill="none" xmlns="http://www.w3.org/2000/svg">
<g clip-path="url(#clip0_286_695)">
<path fill-rule="evenodd" clip-rule="evenodd" d="M17.1789 0.437489C16.6116 -0.0100874 15.8174 -0.0100874 15.25 0.437489L1.11192 11.5922C0.427102 12.1325 0.303724 13.1337 0.836369 13.8284C1.36901 14.5231 2.35598 14.6482 3.04082 14.108L3.64729 13.6295V27.1919C3.64729 28.072 4.35062 28.7854 5.2182 28.7854H13.0727C13.9403 28.7854 14.0909 28.072 14.0909 27.1919V20.8727L18.5091 20.8178V27.1919C18.5091 28.072 18.4887 28.7854 19.3563 28.7854H27.2108C28.0784 28.7854 28.3273 28.072 28.3273 27.1919V13.4545L29.3881 14.108C30.073 14.6482 31.06 14.5231 31.5925 13.8284C32.1252 13.1337 32.0019 12.1325 31.317 11.5922L17.1789 0.437489ZM25.6432 11.1532L16.2145 3.71413L6.3963 10.9818C6.39845 11.016 6.39955 11.0505 6.39955 11.0852V26.3127H11.5018V19.2242C11.5018 18.3441 12.2051 17.6307 13.0727 17.6307H19.3563C20.2239 17.6307 20.9272 18.3441 20.9272 19.2242V25.5984H25.6371V11.4764C25.6371 11.4416 25.641 11.1874 25.6432 11.1532Z" fill="white"/>
</g>
<defs>
<clipPath id="clip0_286_695">
<rect width="32" height="28.8" fill="white"/>
</clipPath>
</defs>
</svg>
