<svg width="173" height="50" viewBox="0 0 173 50" fill="none" xmlns="http://www.w3.org/2000/svg">
<rect x="83.9622" y="38.6792" width="79.2453" height="11.3208" rx="5.66038" fill="#9D80E7"/>
<rect x="153.774" width="18.8679" height="11.3208" rx="5.66038" fill="#9D80E7"/>
<rect y="38.6792" width="18.8679" height="11.3208" rx="5.66038" fill="#9D80E7"/>
<path d="M21.9361 8.56124V14.3909H14.9105V34.907H7.58602V14.3909H0.635223V8.56124H21.9361Z" fill="black"/>
<path d="M31.9704 17.6421C32.7926 16.4463 33.7891 15.4996 34.96 14.802C36.131 14.1044 37.3891 13.7557 38.7344 13.7557V21.566H36.679C35.0846 21.566 33.9012 21.8774 33.1289 22.5002C32.3566 23.123 31.9704 24.2068 31.9704 25.7514V34.907H24.6459V13.9425H31.9704V17.6421Z" fill="black"/>
<path d="M40.1644 24.4061C40.1644 22.2386 40.5505 20.3452 41.3228 18.7258C42.1201 17.1065 43.1913 15.8608 44.5366 14.9889C45.9069 14.1169 47.4266 13.6809 49.0958 13.6809C50.5407 13.6809 51.7864 13.9674 52.8328 14.5404C53.8791 15.1134 54.6888 15.8857 55.2618 16.8574V13.9425H62.5863V34.907H55.2618V31.9922C54.6888 32.9638 53.8667 33.7361 52.7954 34.3091C51.749 34.8821 50.5158 35.1686 49.0958 35.1686C47.4266 35.1686 45.9069 34.7326 44.5366 33.8606C43.1913 32.9887 42.1201 31.743 41.3228 30.1237C40.5505 28.4794 40.1644 26.5735 40.1644 24.4061ZM55.2618 24.4061C55.2618 23.0608 54.8881 22.0019 54.1407 21.2296C53.4182 20.4573 52.5213 20.0712 51.4501 20.0712C50.3539 20.0712 49.4446 20.4573 48.7221 21.2296C47.9996 21.977 47.6384 23.0358 47.6384 24.4061C47.6384 25.7514 47.9996 26.8227 48.7221 27.6199C49.4446 28.3922 50.3539 28.7783 51.4501 28.7783C52.5213 28.7783 53.4182 28.3922 54.1407 27.6199C54.8881 26.8476 55.2618 25.7763 55.2618 24.4061Z" fill="black"/>
<path d="M76.8125 27.9936L80.7364 13.9425H88.5467L81.3343 34.907H72.216L65.0037 13.9425H72.814L76.8125 27.9936Z" fill="black"/>
<path d="M111.059 24.1818C111.059 24.7549 111.021 25.3279 110.947 25.9009H97.0825C97.1572 27.0469 97.4686 27.9064 98.0167 28.4794C98.5897 29.0275 99.3122 29.3015 100.184 29.3015C101.405 29.3015 102.277 28.7534 102.8 27.6572H110.61C110.287 29.1022 109.651 30.3977 108.705 31.5437C107.783 32.6648 106.612 33.5492 105.192 34.197C103.772 34.8447 102.202 35.1686 100.483 35.1686C98.4153 35.1686 96.5718 34.7326 94.9524 33.8606C93.358 32.9887 92.0998 31.743 91.178 30.1237C90.2812 28.5043 89.8327 26.5984 89.8327 24.4061C89.8327 22.2137 90.2812 20.3203 91.178 18.7258C92.0749 17.1065 93.3206 15.8608 94.915 14.9889C96.5344 14.1169 98.3904 13.6809 100.483 13.6809C102.551 13.6809 104.382 14.1044 105.977 14.9515C107.571 15.7985 108.817 17.0193 109.714 18.6137C110.61 20.1833 111.059 22.0393 111.059 24.1818ZM103.585 22.3507C103.585 21.4538 103.286 20.7563 102.688 20.258C102.09 19.7348 101.343 19.4732 100.446 19.4732C99.5489 19.4732 98.814 19.7224 98.241 20.2206C97.6679 20.694 97.2943 21.404 97.1199 22.3507H103.585Z" fill="black"/>
<path d="M121.381 7.2533V34.907H114.056V7.2533H121.381Z" fill="black"/>
<path d="M132.876 7.2533V34.907H125.552V7.2533H132.876Z" fill="black"/>
<path d="M146.801 35.1686C144.708 35.1686 142.827 34.7326 141.158 33.8606C139.514 32.9887 138.218 31.743 137.272 30.1237C136.325 28.5043 135.852 26.5984 135.852 24.4061C135.852 22.2386 136.325 20.3452 137.272 18.7258C138.243 17.1065 139.551 15.8608 141.196 14.9889C142.865 14.1169 144.746 13.6809 146.838 13.6809C148.931 13.6809 150.8 14.1169 152.444 14.9889C154.113 15.8608 155.421 17.1065 156.368 18.7258C157.339 20.3452 157.825 22.2386 157.825 24.4061C157.825 26.5735 157.339 28.4794 156.368 30.1237C155.421 31.743 154.113 32.9887 152.444 33.8606C150.775 34.7326 148.894 35.1686 146.801 35.1686ZM146.801 28.8157C147.822 28.8157 148.67 28.442 149.342 27.6946C150.04 26.9223 150.389 25.8261 150.389 24.4061C150.389 22.986 150.04 21.9023 149.342 21.1549C148.67 20.4075 147.835 20.0338 146.838 20.0338C145.842 20.0338 145.007 20.4075 144.335 21.1549C143.662 21.9023 143.326 22.986 143.326 24.4061C143.326 25.851 143.65 26.9472 144.297 27.6946C144.945 28.442 145.78 28.8157 146.801 28.8157Z" fill="black"/>
</svg>
