<svg width="32" height="32" viewBox="0 0 32 32" fill="none" xmlns="http://www.w3.org/2000/svg">
<path d="M19.6892 28.312C22.2432 28.2815 24.2191 28.2225 25.6481 28.1647C25.6351 28.6747 25.6173 29.0803 25.6017 29.3704C25.5612 30.1269 25.0013 30.7769 24.2171 30.8863C23.8327 30.9399 23.2699 30.9999 22.6667 30.9999C22.0635 30.9999 21.5007 30.9399 21.1163 30.8863C20.3321 30.7769 19.7721 30.1269 19.7317 29.3704C19.7177 29.1088 19.7017 28.7533 19.6892 28.312Z" fill="white"/>
<path d="M6.35181 28.1647C7.78085 28.2225 9.75679 28.2815 12.3108 28.312C12.2982 28.7533 12.2823 29.1088 12.2683 29.3704C12.2278 30.1269 11.6679 30.7769 10.8837 30.8863C10.4993 30.9399 9.93652 30.9999 9.33325 30.9999C8.73005 30.9999 8.16732 30.9399 7.78292 30.8863C6.99872 30.7769 6.43875 30.1269 6.39824 29.3704C6.38271 29.0803 6.36486 28.6747 6.35181 28.1647Z" fill="white"/>
<path fill-rule="evenodd" clip-rule="evenodd" d="M7.33507 1.27908C9.22107 1.13744 12.0649 1 16 1C19.9351 1 22.7789 1.13744 24.6649 1.27908C26.8625 1.44411 28.5559 3.13752 28.7209 5.33508C28.7953 6.32531 28.8685 7.57953 28.9213 9.11707C30.0297 9.4392 30.8949 10.3993 30.9555 11.6632C30.9813 12.2013 31 12.8591 31 13.6364C31 14.289 30.9869 14.8175 30.9671 15.2437C30.9093 16.4875 30.0409 17.3455 28.9773 17.5931C28.9433 20.1931 28.8765 22.1463 28.8149 23.4904C28.7317 25.303 27.303 26.7317 25.4904 26.8149C23.5857 26.9023 20.4583 27 16 27C11.5417 27 8.41427 26.9023 6.50959 26.8149C4.69702 26.7317 3.26824 25.303 3.18511 23.4904C3.12346 22.1463 3.05663 20.1931 3.02264 17.5931C1.95906 17.3455 1.09066 16.4875 1.03293 15.2437C1.01315 14.8175 1 14.289 1 13.6364C1 12.8591 1.01865 12.2013 1.04447 11.6632C1.10511 10.3993 1.97026 9.4392 3.07874 9.11707C3.13151 7.57953 3.20471 6.32531 3.27908 5.33508C3.44412 3.13752 5.13752 1.44412 7.33507 1.27908ZM8.59087 4.62729C9.81887 4.50474 12.2131 4.33333 16 4.33333C19.7869 4.33333 22.1811 4.50474 23.4091 4.62729C24.446 4.73077 25.2586 5.53433 25.3671 6.5748C25.4929 7.78127 25.6667 10.1109 25.6667 13.7799C25.6667 15.1457 25.6533 16.3347 25.633 17.3531C25.6221 17.8975 25.1777 18.3331 24.6332 18.3331H7.3668C6.82227 18.3331 6.37784 17.8975 6.36699 17.3531C6.34669 16.3347 6.33333 15.1458 6.33333 13.7799C6.33333 10.1109 6.50703 7.78127 6.63289 6.5748C6.7414 5.53434 7.554 4.73077 8.59087 4.62729ZM9.33333 21.6667C8.78107 21.6667 8.33333 22.1144 8.33333 22.6667C8.33333 23.2189 8.78107 23.6667 9.33333 23.6667H11.3333C11.8856 23.6667 12.3333 23.2189 12.3333 22.6667C12.3333 22.1144 11.8856 21.6667 11.3333 21.6667H9.33333ZM23.6667 22.6667C23.6667 22.1144 23.2189 21.6667 22.6667 21.6667H20.6667C20.1144 21.6667 19.6667 22.1144 19.6667 22.6667C19.6667 23.2189 20.1144 23.6667 20.6667 23.6667H22.6667C23.2189 23.6667 23.6667 23.2189 23.6667 22.6667Z" fill="white"/>
</svg>
